<svg width="241" height="40" viewBox="0 0 241 40" fill="none" xmlns="http://www.w3.org/2000/svg">
<g clip-path="url(#clip0_2105_833)">
<path d="M0 1.86108H10.8442C13.5357 1.86108 15.571 2.61112 16.9501 4.11119C17.4753 4.67399 17.8885 5.3478 18.1641 6.09094C18.4398 6.83407 18.572 7.6307 18.5527 8.43156V8.50266C18.5623 9.15421 18.4778 9.80337 18.3023 10.4265C18.1471 10.9595 17.9241 11.4663 17.6397 11.9322C17.37 12.3714 17.0459 12.7683 16.6766 13.1116C16.3144 13.4478 15.919 13.7395 15.4978 13.9815C16.7171 14.4422 17.8136 15.2206 18.6914 16.2484C19.4618 17.2047 19.8471 18.5291 19.8471 20.2216V20.2927C19.8694 21.3479 19.658 22.3936 19.2307 23.3416C18.8182 24.2121 18.2133 24.9579 17.4702 25.5123C16.6284 26.1278 15.6895 26.5701 14.7004 26.8172C13.5249 27.1135 12.3206 27.254 11.1139 27.2354H0L0 1.86108ZM9.76173 12.1288C10.6963 12.1759 11.6259 11.9567 12.4583 11.493C12.7852 11.2874 13.0523 10.9863 13.2294 10.6241C13.4065 10.2618 13.4863 9.85281 13.4599 9.44369V9.37258C13.4773 8.99565 13.4066 8.62006 13.2544 8.28076C13.1022 7.94147 12.8734 7.64948 12.5893 7.43197C11.8368 6.93345 10.9613 6.69836 10.0815 6.75862H5.00799V12.1288H9.76173ZM11.1332 22.363C12.065 22.4168 12.9918 22.1834 13.8067 21.6896C14.1261 21.4673 14.3847 21.156 14.5555 20.7882C14.7263 20.4203 14.8029 20.0094 14.7774 19.5984V19.5315C14.7883 19.1411 14.7112 18.7538 14.5528 18.4032C14.3943 18.0526 14.1593 17.7493 13.8683 17.5198C13.2673 17.0235 12.2978 16.7753 10.9598 16.7753H5.00799V22.363H11.1332Z" fill="#123DC6"/>
<path d="M32.0244 10.1547H37.1017V27.2647H32.0244V10.1547Z" fill="#123DC6"/>
<path d="M47.0638 27.6286C46.0197 27.6299 44.9857 27.4082 44.0205 26.9761C43.0343 26.5372 42.1453 25.8758 41.4125 25.0355C40.622 24.1214 40.0031 23.0489 39.5903 21.8779C39.1123 20.5007 38.8809 19.0372 38.9085 17.5658V17.4948C38.8837 16.0273 39.1164 14.5682 39.5942 13.1953C40.0049 12.028 40.6168 10.9563 41.397 10.0376C42.1211 9.1958 43.0042 8.53381 43.9858 8.09701C44.9636 7.66184 46.0108 7.44014 47.0676 7.44456C48.2397 7.39393 49.402 7.69493 50.4268 8.31449C51.2646 8.85638 52.0154 9.54293 52.6496 10.3471V0.769531H57.7308V27.2647H52.6458V24.4709C52.0343 25.3769 51.2679 26.1465 50.3883 26.7377C49.3789 27.3669 48.2269 27.6756 47.0638 27.6286ZM47.8651 22.9485C48.446 22.9532 49.0212 22.8234 49.5524 22.5679C50.0752 22.3149 50.5427 21.9443 50.9238 21.4805C51.3297 20.979 51.647 20.4005 51.8599 19.7741C52.0998 19.0718 52.2186 18.3275 52.2105 17.5784V17.5073C52.2186 16.7582 52.0997 16.014 51.8599 15.3116C51.647 14.6852 51.3297 14.1067 50.9238 13.6052C50.5427 13.1414 50.0752 12.7708 49.5524 12.5178C49.0199 12.2668 48.4456 12.1373 47.8651 12.1373C47.2846 12.1373 46.7102 12.2668 46.1778 12.5178C45.6518 12.7734 45.1798 13.1435 44.7909 13.6052C44.38 14.0932 44.0573 14.6607 43.8394 15.2781C43.5969 15.9855 43.478 16.7358 43.4888 17.4906V17.5658C43.4806 18.3149 43.5995 19.0592 43.8394 19.7616C44.0528 20.3914 44.3758 20.9708 44.7909 21.468C45.1798 21.9297 45.6518 22.2998 46.1778 22.5554C46.7083 22.8138 47.2836 22.9464 47.8651 22.9444V22.9485Z" fill="#123DC6"/>
<path d="M68.1239 33.1451C66.7063 33.1525 65.2929 32.977 63.9134 32.6223C62.6237 32.2906 61.3774 31.7848 60.2036 31.1166L61.941 26.9803C62.8388 27.5186 63.785 27.9558 64.7647 28.2852C65.8121 28.6149 66.8987 28.7741 67.9891 28.7578C69.7278 28.7578 71.0119 28.3103 71.8414 27.4153C72.6709 26.5202 73.0883 25.2014 73.0934 23.4588V22.5094C72.4036 23.4375 71.5659 24.2237 70.6202 24.8306C69.5823 25.4257 68.4186 25.7142 67.2456 25.667C66.2173 25.6711 65.1972 25.4683 64.237 25.069C63.2889 24.6764 62.4249 24.0771 61.6983 23.3082C60.9401 22.4986 60.3424 21.5294 59.9417 20.46C59.4895 19.2318 59.2682 17.9179 59.2906 16.5955V16.5202C59.2686 15.1959 59.4968 13.8807 59.9609 12.6557C60.3712 11.5879 60.9737 10.6196 61.733 9.80756C62.4599 9.03899 63.3238 8.43981 64.2716 8.04679C65.2204 7.64974 66.2288 7.44696 67.2456 7.44872C68.4299 7.39906 69.6054 7.68748 70.6549 8.28519C71.5401 8.83743 72.3406 9.53588 73.0279 10.3555V7.81258H78.1091V22.869C78.1091 26.3292 77.3515 28.8819 75.8362 30.5269C74.944 31.474 73.8453 32.1604 72.6427 32.5219C71.1713 32.9615 69.6498 33.1714 68.1239 33.1451ZM68.2241 21.0957C68.8166 21.1017 69.4052 20.9911 69.9615 20.7695C70.4762 20.5654 70.9478 20.2511 71.3483 19.8452C71.7419 19.4376 72.054 18.9465 72.2652 18.4023C72.4913 17.8289 72.6054 17.2109 72.6003 16.5872V16.5202C72.6054 15.8965 72.4913 15.2785 72.2652 14.7051C72.0518 14.1636 71.7385 13.6754 71.3445 13.2706C70.9439 12.8646 70.4723 12.5503 69.9576 12.3463C69.4014 12.1246 68.8128 12.0141 68.2202 12.02C67.6326 12.0128 67.0489 12.1234 66.4983 12.3463C65.9894 12.5531 65.5233 12.8672 65.1268 13.2706C64.7326 13.6751 64.4192 14.1634 64.2061 14.7051C63.9798 15.2784 63.8656 15.8965 63.871 16.5202V16.5913C63.8465 17.2008 63.944 17.8088 64.1568 18.3735C64.3697 18.9381 64.6927 19.4459 65.1037 19.8619C65.9553 20.6974 67.0732 21.1399 68.2202 21.0957H68.2241Z" fill="#123DC6"/>
<path d="M88.988 27.6996C87.714 27.7116 86.4493 27.4648 85.2589 26.9718C84.1466 26.5121 83.134 25.8072 82.285 24.9016C81.4434 24.0037 80.7765 22.9313 80.3241 21.7481C79.8433 20.4514 79.605 19.0638 79.623 17.6661V17.5657C79.616 16.2271 79.8367 14.8985 80.2741 13.6469C80.6857 12.454 81.3043 11.358 82.0962 10.4181C82.9069 9.46156 83.8947 8.7018 84.9947 8.18862C86.0948 7.67544 87.2823 7.42042 88.4795 7.44026C89.8169 7.40368 91.1441 7.70132 92.3587 8.31019C93.4156 8.86159 94.3459 9.66167 95.0823 10.6523C95.8188 11.6542 96.366 12.804 96.6926 14.0358C97.0399 15.3264 97.2137 16.6646 97.2088 18.0091C97.2088 18.2265 97.2088 18.4566 97.2088 18.6992C97.2088 18.9417 97.1921 19.1955 97.1587 19.4603H84.6695C84.8395 20.5796 85.3808 21.5926 86.1912 22.3085C87.0168 22.9699 88.0241 23.3089 89.0496 23.2705C89.8291 23.2846 90.6029 23.1237 91.3225 22.7979C92.0849 22.4159 92.7849 21.9018 93.395 21.2755L96.3073 24.0693C95.474 25.1947 94.4215 26.1059 93.2255 26.7376C91.8996 27.4067 90.4497 27.7358 88.988 27.6996ZM92.2624 16.0141C92.1577 14.9047 91.7376 13.8581 91.0605 13.0195C90.7326 12.6393 90.3329 12.3404 89.8887 12.1434C89.4446 11.9463 88.9665 11.8557 88.4872 11.8777C88.0083 11.858 87.531 11.9481 87.0863 12.1419C86.6416 12.3357 86.2395 12.6291 85.9061 13.0028C85.209 13.8439 84.7607 14.893 84.6195 16.0141H92.2624Z" fill="#123DC6"/>
<path d="M0 1.86108H10.8442C13.5357 1.86108 15.571 2.61112 16.9501 4.11119C17.4753 4.67399 17.8885 5.3478 18.1641 6.09094C18.4398 6.83407 18.572 7.6307 18.5527 8.43156V8.50266C18.5623 9.15421 18.4778 9.80337 18.3023 10.4265C18.1471 10.9595 17.9241 11.4663 17.6397 11.9322C17.37 12.3714 17.0459 12.7683 16.6766 13.1116C16.3144 13.4478 15.919 13.7395 15.4978 13.9815C16.7171 14.4422 17.8136 15.2206 18.6914 16.2484C19.4618 17.2047 19.8471 18.5291 19.8471 20.2216V20.2927C19.8694 21.3479 19.658 22.3936 19.2307 23.3416C18.8182 24.2121 18.2133 24.9579 17.4702 25.5123C16.6284 26.1278 15.6895 26.5701 14.7004 26.8172C13.5249 27.1135 12.3206 27.254 11.1139 27.2354H0L0 1.86108ZM9.76173 12.1288C10.6963 12.1759 11.6259 11.9567 12.4583 11.493C12.7852 11.2874 13.0523 10.9863 13.2294 10.6241C13.4065 10.2618 13.4863 9.85281 13.4599 9.44369V9.37258C13.4773 8.99565 13.4066 8.62006 13.2544 8.28076C13.1022 7.94147 12.8734 7.64948 12.5893 7.43197C11.8368 6.93345 10.9613 6.69836 10.0815 6.75862H5.00799V12.1288H9.76173ZM11.1332 22.363C12.065 22.4168 12.9918 22.1834 13.8067 21.6896C14.1261 21.4673 14.3847 21.156 14.5555 20.7882C14.7263 20.4203 14.8029 20.0094 14.7774 19.5984V19.5315C14.7883 19.1411 14.7112 18.7538 14.5528 18.4032C14.3943 18.0526 14.1593 17.7493 13.8683 17.5198C13.2673 17.0235 12.2978 16.7753 10.9598 16.7753H5.00799V22.363H11.1332Z" fill="#123DC6"/>
<path d="M32.0244 10.1547H37.1017V27.2647H32.0244V10.1547Z" fill="#123DC6"/>
<path d="M47.0638 27.6286C46.0197 27.6299 44.9857 27.4082 44.0205 26.9761C43.0343 26.5372 42.1453 25.8758 41.4125 25.0355C40.622 24.1214 40.0031 23.0489 39.5903 21.8779C39.1123 20.5007 38.8809 19.0372 38.9085 17.5658V17.4948C38.8837 16.0273 39.1164 14.5682 39.5942 13.1953C40.0049 12.028 40.6168 10.9563 41.397 10.0376C42.1211 9.1958 43.0042 8.53381 43.9858 8.09701C44.9636 7.66184 46.0108 7.44014 47.0676 7.44456C48.2397 7.39393 49.402 7.69493 50.4268 8.31449C51.2646 8.85638 52.0154 9.54293 52.6496 10.3471V0.769531H57.7308V27.2647H52.6458V24.4709C52.0343 25.3769 51.2679 26.1465 50.3883 26.7377C49.3789 27.3669 48.2269 27.6756 47.0638 27.6286ZM47.8651 22.9485C48.446 22.9532 49.0212 22.8234 49.5524 22.5679C50.0752 22.3149 50.5427 21.9443 50.9238 21.4805C51.3297 20.979 51.647 20.4005 51.8599 19.7741C52.0998 19.0718 52.2186 18.3275 52.2105 17.5784V17.5073C52.2186 16.7582 52.0997 16.014 51.8599 15.3116C51.647 14.6852 51.3297 14.1067 50.9238 13.6052C50.5427 13.1414 50.0752 12.7708 49.5524 12.5178C49.0199 12.2668 48.4456 12.1373 47.8651 12.1373C47.2846 12.1373 46.7102 12.2668 46.1778 12.5178C45.6518 12.7734 45.1798 13.1435 44.7909 13.6052C44.38 14.0932 44.0573 14.6607 43.8394 15.2781C43.5969 15.9855 43.478 16.7358 43.4888 17.4906V17.5658C43.4806 18.3149 43.5995 19.0592 43.8394 19.7616C44.0528 20.3914 44.3758 20.9708 44.7909 21.468C45.1798 21.9297 45.6518 22.2998 46.1778 22.5554C46.7083 22.8138 47.2836 22.9464 47.8651 22.9444V22.9485Z" fill="#123DC6"/>
<path d="M68.1239 33.1451C66.7063 33.1525 65.2929 32.977 63.9134 32.6223C62.6237 32.2906 61.3774 31.7848 60.2036 31.1166L61.941 26.9803C62.8388 27.5186 63.785 27.9558 64.7647 28.2852C65.8121 28.6149 66.8987 28.7741 67.9891 28.7578C69.7278 28.7578 71.0119 28.3103 71.8414 27.4153C72.6709 26.5202 73.0883 25.2014 73.0934 23.4588V22.5094C72.4036 23.4375 71.5659 24.2237 70.6202 24.8306C69.5823 25.4257 68.4186 25.7142 67.2456 25.667C66.2173 25.6711 65.1972 25.4683 64.237 25.069C63.2889 24.6764 62.4249 24.0771 61.6983 23.3082C60.9401 22.4986 60.3424 21.5294 59.9417 20.46C59.4895 19.2318 59.2682 17.9179 59.2906 16.5955V16.5202C59.2686 15.1959 59.4968 13.8807 59.9609 12.6557C60.3712 11.5879 60.9737 10.6196 61.733 9.80756C62.4599 9.03899 63.3238 8.43981 64.2716 8.04679C65.2204 7.64974 66.2288 7.44696 67.2456 7.44872C68.4299 7.39906 69.6054 7.68748 70.6549 8.28519C71.5401 8.83743 72.3406 9.53588 73.0279 10.3555V7.81258H78.1091V22.869C78.1091 26.3292 77.3515 28.8819 75.8362 30.5269C74.944 31.474 73.8453 32.1604 72.6427 32.5219C71.1713 32.9615 69.6498 33.1714 68.1239 33.1451ZM68.2241 21.0957C68.8166 21.1017 69.4052 20.9911 69.9615 20.7695C70.4762 20.5654 70.9478 20.2511 71.3483 19.8452C71.7419 19.4376 72.054 18.9465 72.2652 18.4023C72.4913 17.8289 72.6054 17.2109 72.6003 16.5872V16.5202C72.6054 15.8965 72.4913 15.2785 72.2652 14.7051C72.0518 14.1636 71.7385 13.6754 71.3445 13.2706C70.9439 12.8646 70.4723 12.5503 69.9576 12.3463C69.4014 12.1246 68.8128 12.0141 68.2202 12.02C67.6326 12.0128 67.0489 12.1234 66.4983 12.3463C65.9894 12.5531 65.5233 12.8672 65.1268 13.2706C64.7326 13.6751 64.4192 14.1634 64.2061 14.7051C63.9798 15.2784 63.8656 15.8965 63.871 16.5202V16.5913C63.8465 17.2008 63.944 17.8088 64.1568 18.3735C64.3697 18.9381 64.6927 19.4459 65.1037 19.8619C65.9553 20.6974 67.0732 21.1399 68.2202 21.0957H68.2241Z" fill="#123DC6"/>
<path d="M88.988 27.6996C87.714 27.7116 86.4493 27.4648 85.2589 26.9718C84.1466 26.5121 83.134 25.8072 82.285 24.9016C81.4434 24.0037 80.7765 22.9313 80.3241 21.7481C79.8433 20.4514 79.605 19.0638 79.623 17.6661V17.5657C79.616 16.2271 79.8367 14.8985 80.2741 13.6469C80.6857 12.454 81.3043 11.358 82.0962 10.4181C82.9069 9.46156 83.8947 8.7018 84.9947 8.18862C86.0948 7.67544 87.2823 7.42042 88.4795 7.44026C89.8169 7.40368 91.1441 7.70132 92.3587 8.31019C93.4156 8.86159 94.3459 9.66167 95.0823 10.6523C95.8188 11.6542 96.366 12.804 96.6926 14.0358C97.0399 15.3264 97.2137 16.6646 97.2088 18.0091C97.2088 18.2265 97.2088 18.4566 97.2088 18.6992C97.2088 18.9417 97.1921 19.1955 97.1587 19.4603H84.6695C84.8395 20.5796 85.3808 21.5926 86.1912 22.3085C87.0168 22.9699 88.0241 23.3089 89.0496 23.2705C89.8291 23.2846 90.6029 23.1237 91.3225 22.7979C92.0849 22.4159 92.7849 21.9018 93.395 21.2755L96.3073 24.0693C95.474 25.1947 94.4215 26.1059 93.2255 26.7376C91.8996 27.4067 90.4497 27.7358 88.988 27.6996ZM92.2624 16.0141C92.1577 14.9047 91.7376 13.8581 91.0605 13.0195C90.7326 12.6393 90.3329 12.3404 89.8887 12.1434C89.4446 11.9463 88.9665 11.8557 88.4872 11.8777C88.0083 11.858 87.531 11.9481 87.0863 12.1419C86.6416 12.3357 86.2395 12.6291 85.9061 13.0028C85.209 13.8439 84.7607 14.893 84.6195 16.0141H92.2624Z" fill="#123DC6"/>
<path d="M27.0739 27.2646V13.1283C27.0739 9.5649 28.4839 6.56616 33.2376 6.43651H34.2354C36.932 6.43651 37.7024 5.20689 37.7024 3.60087C37.7024 1.99485 36.7933 0.735962 33.9657 0.735962H33.4842C26.5808 0.756874 21.8232 4.60045 21.8232 13.1283V27.2646H27.0739Z" fill="url(#paint0_linear_2105_833)"/>
<path d="M100.01 12.3753H97.8838V7.77471H100.01V6.52001C100.01 4.39259 100.494 2.80329 101.463 1.75213C102.431 0.700965 103.815 0.196295 105.615 0.238118C106.31 0.229642 107.004 0.278578 107.692 0.384501C108.225 0.476707 108.751 0.616594 109.263 0.802736V5.40332C108.899 5.26313 108.527 5.1472 108.15 5.05619C107.75 4.96589 107.342 4.92243 106.933 4.92653C105.695 4.92653 105.076 5.63475 105.076 7.05117V7.82072H109.229V12.3753H105.142V27.2561H100.01V12.3753Z" fill="#123DC6"/>
<path d="M117.881 27.6996C116.552 27.7137 115.233 27.4466 113.998 26.9133C112.851 26.4175 111.804 25.683 110.916 24.751C110.047 23.832 109.354 22.7363 108.875 21.5264C108.375 20.2711 108.122 18.9165 108.131 17.549V17.4737C108.122 16.1063 108.375 14.7517 108.875 13.4963C109.359 12.2786 110.06 11.1759 110.936 10.2508C111.828 9.30881 112.878 8.56068 114.029 8.04671C115.273 7.49832 116.604 7.22393 117.947 7.23952C119.276 7.2254 120.595 7.49246 121.83 8.0258C122.977 8.52208 124.024 9.25656 124.912 10.1881C125.78 11.1079 126.473 12.2034 126.953 13.4127C127.453 14.6681 127.706 16.0226 127.697 17.3901V17.4654C127.706 18.8328 127.453 20.1874 126.953 21.4428C126.469 22.6558 125.77 23.7541 124.896 24.6757C124 25.6178 122.946 26.3646 121.791 26.8757C120.551 27.4287 119.222 27.7088 117.881 27.6996ZM117.951 22.8982C118.629 22.9135 119.303 22.7709 119.927 22.48C120.481 22.2109 120.977 21.8191 121.383 21.3299C121.792 20.8326 122.108 20.2528 122.311 19.6235C122.53 18.952 122.638 18.2443 122.631 17.5323V17.457C122.637 16.7433 122.522 16.0345 122.292 15.3658C122.073 14.7233 121.74 14.1339 121.311 13.6315C120.882 13.1291 120.366 12.7236 119.792 12.4382C119.187 12.1407 118.53 11.9908 117.866 11.999C117.187 11.984 116.513 12.1266 115.89 12.4173C115.324 12.7001 114.821 13.1108 114.414 13.6218C114.005 14.1191 113.689 14.6988 113.486 15.3282C113.267 15.9996 113.159 16.7074 113.166 17.4194V17.4946C113.16 18.2084 113.275 18.9173 113.505 19.5858C113.947 20.8768 114.838 21.9281 115.986 22.5135C116.603 22.7963 117.27 22.9263 117.939 22.8941L117.951 22.8982Z" fill="#123DC6"/>
<path d="M128.375 7.60746H133.506V11.5681C133.96 10.32 134.691 9.21256 135.633 8.34355C136.534 7.53775 137.75 7.1711 139.281 7.24359V13.0696H139.011C137.301 13.0696 135.955 13.6273 134.974 14.7425C133.993 15.8578 133.504 17.6047 133.506 19.983V27.2561H128.375V7.60746Z" fill="#123DC6"/>
<path d="M140.918 1.59326H151.874C154.594 1.59326 156.648 2.35027 158.038 3.86428C158.567 4.4332 158.984 5.11366 159.262 5.86383C159.54 6.61399 159.674 7.41802 159.656 8.22647V8.30175C159.666 8.96024 159.582 9.61646 159.405 10.2465C159.242 10.7866 159.01 11.2991 158.716 11.7689C158.449 12.2131 158.127 12.6156 157.76 12.9651C157.394 13.3044 156.995 13.599 156.57 13.8434C157.802 14.309 158.911 15.096 159.798 16.1353C160.581 17.1 160.973 18.4384 160.973 20.1504V20.2256C160.995 21.2911 160.781 22.3468 160.349 23.3038C159.933 24.1894 159.32 24.9484 158.565 25.5121C157.716 26.135 156.768 26.583 155.769 26.8337C154.581 27.1389 153.364 27.2864 152.144 27.2729H140.918V1.59326ZM150.78 11.9697C151.727 12.0199 152.671 11.7993 153.515 11.3298C153.848 11.1204 154.12 10.813 154.3 10.443C154.479 10.0729 154.558 9.65542 154.528 9.2386V9.20096C154.546 8.82009 154.475 8.44045 154.322 8.09746C154.168 7.75446 153.937 7.45928 153.65 7.23943C152.89 6.73745 152.007 6.50094 151.119 6.56189H145.98V11.999L150.78 11.9697ZM152.167 22.3084C153.106 22.3621 154.041 22.1273 154.863 21.6309C155.183 21.4081 155.442 21.0969 155.614 20.7294C155.786 20.3618 155.864 19.9512 155.842 19.5397V19.4477C155.854 19.0531 155.777 18.6613 155.618 18.3063C155.459 17.9513 155.222 17.6439 154.929 17.4109C154.32 16.909 153.34 16.6581 151.989 16.6581H145.98V22.3043L152.167 22.3084Z" fill="#123DC6"/>
<path d="M161.951 7.60742H167.082V27.2645H161.951V7.60742Z" fill="#123DC6"/>
<path d="M169.116 0.493286H174.247V27.2603H169.116V0.493286Z" fill="#123DC6"/>
<path d="M176.271 0.493286H181.402V27.2603H176.271V0.493286Z" fill="#123DC6"/>
<path d="M183.428 7.60742H188.559V27.2645H183.428V7.60742Z" fill="#123DC6"/>
<path d="M199.23 27.6995C197.901 27.7137 196.582 27.4466 195.347 26.9133C194.2 26.4175 193.153 25.6829 192.265 24.751C191.396 23.8319 190.702 22.7363 190.223 21.5264C189.724 20.271 189.47 18.9165 189.48 17.549V17.4737C189.471 16.1062 189.724 14.7517 190.223 13.4963C190.708 12.2785 191.408 11.1759 192.284 10.2508C193.18 9.30894 194.234 8.56218 195.389 8.05086C196.633 7.50247 197.965 7.22808 199.307 7.24367C200.636 7.22955 201.955 7.49661 203.19 8.02995C204.337 8.52623 205.384 9.26071 206.272 10.1922C207.14 11.112 207.834 12.2075 208.314 13.4168C208.813 14.6723 209.066 16.0268 209.057 17.3942V17.4695C209.066 18.837 208.813 20.1915 208.314 21.4469C207.827 22.6588 207.127 23.7556 206.253 24.6757C205.357 25.6178 204.303 26.3646 203.148 26.8756C201.905 27.4298 200.573 27.7098 199.23 27.6995ZM199.299 22.8982C199.978 22.9135 200.652 22.7709 201.275 22.48C201.833 22.2124 202.334 21.8205 202.743 21.3298C203.153 20.8326 203.468 20.2528 203.672 19.6234C203.89 18.952 203.998 18.2442 203.991 17.5323V17.457C203.997 16.7433 203.882 16.0344 203.652 15.3658C203.434 14.7232 203.1 14.1339 202.671 13.6315C202.242 13.1291 201.726 12.7236 201.152 12.4381C200.547 12.1407 199.89 11.9908 199.226 11.999C198.547 11.984 197.874 12.1266 197.25 12.4172C196.692 12.6864 196.192 13.0796 195.782 13.5716C195.373 14.0688 195.057 14.6486 194.854 15.278C194.635 15.9493 194.527 16.6571 194.534 17.3691V17.4444C194.528 18.1582 194.643 18.867 194.873 19.5356C195.315 20.8266 196.206 21.8778 197.354 22.4632C197.965 22.762 198.629 22.9092 199.299 22.894V22.8982Z" fill="#123DC6"/>
<path d="M209.731 7.60755H214.863V10.4181C215.159 9.99516 215.481 9.59416 215.826 9.21775C216.175 8.83354 216.563 8.49267 216.981 8.20144C217.431 7.89639 217.917 7.65996 218.426 7.4988C218.997 7.31807 219.589 7.23068 220.183 7.2395C222.142 7.2395 223.656 7.88776 224.725 9.18429C225.793 10.4808 226.327 12.2653 226.327 14.5377V27.2562H221.18V16.311C221.18 14.995 220.911 14.001 220.372 13.329C220.08 12.9845 219.721 12.7151 219.321 12.5407C218.921 12.3663 218.49 12.2913 218.06 12.3211C217.627 12.3014 217.195 12.3823 216.793 12.5583C216.392 12.7343 216.029 13.0013 215.729 13.3415C215.154 14.0107 214.867 15.0047 214.867 16.3236V27.2562H209.731V7.60755Z" fill="#123DC6"/>
<path d="M234.078 27.6033C231.257 27.5791 228.524 26.5342 226.312 24.6338L228.507 20.9659C229.412 21.6984 230.407 22.291 231.462 22.7267C232.34 23.0962 233.271 23.2944 234.213 23.3122C234.785 23.354 235.355 23.2083 235.85 22.894C236.012 22.7789 236.145 22.6212 236.237 22.4356C236.328 22.2499 236.376 22.0422 236.374 21.8317V21.7564C236.374 21.6123 236.347 21.4697 236.295 21.3374C236.243 21.205 236.166 21.0857 236.069 20.9868C235.83 20.741 235.548 20.5479 235.241 20.418C234.849 20.2423 234.45 20.0887 234.043 19.958C233.594 19.8102 233.121 19.6513 232.625 19.4812C231.972 19.2802 231.329 19.0415 230.699 18.766C230.073 18.4947 229.488 18.124 228.962 17.666C228.439 17.2077 228.008 16.6385 227.695 15.9931C227.349 15.2426 227.181 14.4103 227.205 13.5715V13.4962C227.184 12.6211 227.347 11.7521 227.68 10.9551C228.014 10.1581 228.51 9.45387 229.131 8.89566C229.748 8.34677 230.459 7.93596 231.223 7.68696C232.06 7.40682 232.932 7.26582 233.808 7.26872C234.994 7.27588 236.173 7.4804 237.302 7.87516C238.455 8.26508 239.552 8.82819 240.561 9.5481L238.604 13.3959C237.765 12.8648 236.883 12.4168 235.969 12.0575C235.246 11.7562 234.482 11.5893 233.708 11.564C233.21 11.5254 232.713 11.6602 232.29 11.9488C232.144 12.0644 232.028 12.2182 231.951 12.3958C231.874 12.5735 231.84 12.7693 231.851 12.9651V13.0404C231.852 13.1762 231.88 13.3102 231.932 13.4335C231.985 13.5568 232.061 13.6666 232.155 13.7555C232.398 13.9922 232.67 14.1894 232.964 14.3411C233.34 14.5427 233.726 14.72 234.12 14.8722C234.559 15.0423 235.027 15.2138 235.522 15.3867C236.152 15.6069 236.794 15.869 237.449 16.1729C238.084 16.4586 238.682 16.8325 239.228 17.2855C239.748 17.7284 240.184 18.2767 240.511 18.8998C240.864 19.6075 241.038 20.4041 241.016 21.2085V21.2838C241.039 22.261 240.86 23.2313 240.492 24.1236C240.158 24.898 239.654 25.5716 239.024 26.0851C238.36 26.6161 237.61 27.0076 236.813 27.2394C235.921 27.4965 235.001 27.619 234.078 27.6033Z" fill="#123DC6"/>
<path d="M164.521 6.28165C166.119 6.28165 167.414 4.8754 167.414 3.1407C167.414 1.40601 166.119 -0.000244141 164.521 -0.000244141C162.923 -0.000244141 161.628 1.40601 161.628 3.1407C161.628 4.8754 162.923 6.28165 164.521 6.28165Z" fill="#123DC6"/>
<path d="M185.932 6.28165C187.53 6.28165 188.825 4.8754 188.825 3.1407C188.825 1.40601 187.53 -0.000244141 185.932 -0.000244141C184.334 -0.000244141 183.039 1.40601 183.039 3.1407C183.039 4.8754 184.334 6.28165 185.932 6.28165Z" fill="#123DC6"/>
<path d="M140.845 35.0898V35.0647C140.839 34.2363 141.135 33.439 141.668 32.8466C142.201 32.2542 142.929 31.915 143.692 31.9028C144.114 31.9026 144.532 32.002 144.916 32.194C145.299 32.3861 145.64 32.6663 145.914 33.0153L145.529 33.4336C145.303 33.134 145.021 32.8902 144.702 32.7186C144.382 32.5469 144.033 32.4513 143.676 32.4382C143.372 32.4474 143.072 32.5218 142.794 32.6573C142.516 32.7928 142.265 32.9866 142.057 33.2276C141.848 33.4686 141.685 33.752 141.578 34.0615C141.47 34.3711 141.42 34.7006 141.43 35.0312V35.0563C141.421 35.3918 141.472 35.7261 141.582 36.0397C141.692 36.3534 141.859 36.6403 142.071 36.8838C142.284 37.1273 142.539 37.3225 142.822 37.4582C143.105 37.594 143.41 37.6675 143.719 37.6745C144.078 37.663 144.431 37.5669 144.753 37.3928C145.075 37.2188 145.358 36.971 145.583 36.6665L145.968 37.022C145.602 37.5355 145.096 37.9108 144.523 38.095C143.949 38.2791 143.337 38.2627 142.772 38.0481C142.208 37.8335 141.72 37.4315 141.377 36.8991C141.035 36.3666 140.855 35.7307 140.864 35.0814L140.845 35.0898Z" fill="#123DC6"/>
<path d="M146.904 35.0898V35.0647C146.899 34.6522 146.969 34.2426 147.111 33.8598C147.252 33.477 147.462 33.1284 147.729 32.8344C147.996 32.5403 148.313 32.3066 148.663 32.1467C149.014 31.9868 149.39 31.9039 149.77 31.9028C150.147 31.9022 150.521 31.9833 150.87 32.1413C151.218 32.2993 151.534 32.531 151.799 32.8231C152.064 33.1151 152.273 33.4615 152.413 33.842C152.554 34.2226 152.623 34.6297 152.617 35.0396V35.0647C152.622 35.4772 152.551 35.8868 152.41 36.2696C152.268 36.6524 152.058 37.0009 151.791 37.295C151.525 37.5891 151.207 37.8228 150.857 37.9827C150.507 38.1426 150.131 38.2255 149.751 38.2266C149.373 38.2272 148.999 38.1461 148.651 37.9881C148.302 37.8301 147.986 37.5983 147.721 37.3063C147.456 37.0143 147.247 36.6679 147.107 36.2874C146.967 35.9068 146.898 35.4997 146.904 35.0898ZM152.039 35.0898V35.0647C152.05 34.7289 151.999 34.3942 151.889 34.08C151.779 33.7658 151.613 33.4785 151.4 33.2348C151.187 32.9911 150.932 32.7959 150.648 32.6605C150.365 32.5252 150.06 32.4524 149.751 32.4465C149.444 32.4525 149.142 32.5245 148.861 32.6586C148.58 32.7926 148.327 32.9859 148.116 33.2272C147.905 33.4685 147.74 33.753 147.631 34.0642C147.522 34.3754 147.471 34.7069 147.482 35.0396V35.0647C147.471 35.4005 147.522 35.7352 147.631 36.0494C147.741 36.3635 147.907 36.6509 148.12 36.8946C148.333 37.1383 148.589 37.3335 148.872 37.4689C149.155 37.6042 149.46 37.6769 149.77 37.6828C150.076 37.6769 150.379 37.6049 150.659 37.4708C150.94 37.3368 151.193 37.1435 151.404 36.9022C151.616 36.6609 151.78 36.3763 151.889 36.0652C151.998 35.754 152.049 35.4225 152.039 35.0898Z" fill="#123DC6"/>
<path d="M154.262 32.045H154.797V33.17C154.989 32.777 155.279 32.4508 155.634 32.2288C155.989 32.0068 156.395 31.8982 156.804 31.9153C158.21 31.9153 159.027 32.9567 159.027 34.3996V38.0927H158.492V34.4958C158.492 33.2411 157.848 32.4381 156.727 32.4381C156.469 32.438 156.214 32.4941 155.976 32.6031C155.739 32.7121 155.524 32.8718 155.344 33.0726C155.165 33.2735 155.024 33.5115 154.931 33.7725C154.837 34.0335 154.793 34.3122 154.801 34.592V38.0843H154.266L154.262 32.045Z" fill="#123DC6"/>
<path d="M160.946 32.045H161.482V33.17C161.674 32.777 161.964 32.4508 162.319 32.2288C162.674 32.0068 163.079 31.8982 163.489 31.9153C164.895 31.9153 165.712 32.9567 165.712 34.3996V38.0927H165.176V34.4958C165.176 33.2411 164.533 32.4381 163.412 32.4381C163.154 32.438 162.899 32.4941 162.661 32.6031C162.424 32.7121 162.209 32.8718 162.029 33.0726C161.849 33.2735 161.709 33.5115 161.615 33.7725C161.522 34.0335 161.478 34.3122 161.486 34.592V38.0843H160.95L160.946 32.045Z" fill="#123DC6"/>
<path d="M167.248 35.0772V35.0521C167.248 33.2997 168.38 31.9028 169.887 31.9028C171.393 31.9028 172.437 33.2746 172.437 35.0647C172.443 35.144 172.443 35.2237 172.437 35.3031H167.814C167.818 35.9307 168.049 36.5316 168.456 36.9766C168.864 37.4216 169.416 37.6752 169.995 37.6828C170.36 37.6879 170.721 37.6058 171.054 37.4425C171.387 37.2792 171.683 37.0386 171.921 36.7376L172.306 37.0931C172.024 37.4591 171.67 37.7514 171.27 37.9484C170.87 38.1453 170.434 38.2418 169.995 38.2307C169.621 38.229 169.251 38.145 168.908 37.9837C168.565 37.8224 168.256 37.5872 167.999 37.2924C167.743 36.9976 167.544 36.6492 167.414 36.2685C167.285 35.8877 167.229 35.4825 167.248 35.0772ZM171.871 34.7803C171.794 33.559 171.15 32.4382 169.875 32.4382C168.773 32.4382 167.922 33.4461 167.826 34.7803H171.871Z" fill="#123DC6"/>
<path d="M173.616 35.0898V35.0647C173.61 34.2413 173.902 33.4483 174.43 32.8567C174.957 32.2652 175.678 31.9226 176.436 31.9028C176.859 31.9026 177.276 32.002 177.66 32.194C178.044 32.3861 178.385 32.6663 178.659 33.0153L178.274 33.4336C178.049 33.1384 177.768 32.8982 177.452 32.7288C177.135 32.5594 176.789 32.4647 176.436 32.4507C176.132 32.4599 175.832 32.5344 175.554 32.6699C175.276 32.8053 175.025 32.9991 174.817 33.2401C174.608 33.4811 174.445 33.7645 174.338 34.0741C174.23 34.3836 174.18 34.7132 174.19 35.0438V35.0689C174.181 35.4044 174.232 35.7386 174.342 36.0523C174.452 36.366 174.618 36.6528 174.831 36.8963C175.044 37.1398 175.299 37.3351 175.582 37.4708C175.865 37.6065 176.169 37.68 176.479 37.687C176.842 37.678 177.198 37.5827 177.524 37.4079C177.849 37.233 178.136 36.9828 178.362 36.6749L178.748 37.0304C178.381 37.5438 177.876 37.9192 177.302 38.1034C176.728 38.2875 176.116 38.2711 175.551 38.0565C174.987 37.8418 174.499 37.4399 174.156 36.9074C173.814 36.375 173.634 35.7391 173.643 35.0898H173.616Z" fill="#123DC6"/>
<path d="M180.515 36.5326V32.5803H179.71V32.0449H180.515V30.1127H181.058V32.0407H182.984V32.5803H181.058V36.474C181.058 37.3398 181.528 37.6451 182.172 37.6451C182.454 37.6417 182.732 37.5688 182.984 37.4318V37.9755C182.702 38.121 182.392 38.1939 182.079 38.1888C181.212 38.1888 180.515 37.6827 180.515 36.5326Z" fill="#123DC6"/>
<path d="M184.591 29.6945H185.257V30.4891H184.591V29.6945ZM184.656 32.0617H185.192V38.0843H184.656V32.0617Z" fill="#123DC6"/>
<path d="M187.295 32.045H187.83V33.17C188.022 32.777 188.312 32.4508 188.667 32.2288C189.022 32.0068 189.428 31.8982 189.837 31.9153C191.244 31.9153 192.06 32.9567 192.06 34.3996V38.0927H191.525V34.4958C191.525 33.2411 190.881 32.4381 189.76 32.4381C189.503 32.438 189.247 32.4941 189.01 32.6031C188.772 32.7121 188.557 32.8718 188.378 33.0726C188.198 33.2735 188.057 33.5115 187.964 33.7725C187.871 34.0335 187.827 34.3122 187.834 34.592V38.0843H187.299L187.295 32.045Z" fill="#123DC6"/>
<path d="M193.872 39.0797L194.188 38.6071C194.829 39.1512 195.62 39.4458 196.433 39.4436C197.709 39.4436 198.614 38.649 198.614 37.1015V36.2357C198.367 36.6597 198.026 37.0096 197.622 37.2536C197.218 37.4977 196.765 37.628 196.302 37.6326C195.955 37.6376 195.61 37.568 195.288 37.4277C194.965 37.2875 194.672 37.0795 194.424 36.8155C194.176 36.5516 193.978 36.237 193.842 35.8899C193.706 35.5428 193.635 35.1699 193.633 34.7928V34.7677C193.634 34.389 193.704 34.0142 193.839 33.6649C193.974 33.3156 194.171 32.9988 194.419 32.7325C194.667 32.4663 194.961 32.2559 195.284 32.1135C195.608 31.9711 195.954 31.8995 196.302 31.9028C196.761 31.9025 197.212 32.0258 197.615 32.2616C198.019 32.4974 198.362 32.8383 198.614 33.2537V32.045H199.165V37.1475C199.18 37.5233 199.125 37.8985 199.003 38.2507C198.881 38.6028 198.695 38.9246 198.456 39.1968C197.907 39.7438 197.181 40.0325 196.437 39.9999C195.512 40.0084 194.61 39.685 193.872 39.0797ZM198.648 34.7845V34.7552C198.648 33.3583 197.493 32.4591 196.337 32.4591C196.055 32.4452 195.774 32.4944 195.51 32.6036C195.247 32.7128 195.007 32.8797 194.805 33.0939C194.604 33.308 194.445 33.5649 194.339 33.8485C194.232 34.1322 194.181 34.4365 194.188 34.7426V34.7677C194.185 35.0737 194.24 35.377 194.347 35.6597C194.455 35.9425 194.614 36.1991 194.814 36.4142C195.014 36.6294 195.252 36.7988 195.514 36.9125C195.775 37.0263 196.055 37.082 196.337 37.0764C197.501 37.0764 198.645 36.1521 198.645 34.7803L198.648 34.7845Z" fill="#123DC6"/>
<path d="M204.335 39.0797L204.65 38.6071C205.292 39.1512 206.083 39.4458 206.896 39.4436C208.171 39.4436 209.077 38.649 209.077 37.1015V36.2357C208.83 36.6597 208.489 37.0096 208.085 37.2536C207.681 37.4977 207.227 37.628 206.765 37.6326C206.418 37.6376 206.073 37.568 205.751 37.4277C205.428 37.2875 205.135 37.0795 204.887 36.8155C204.638 36.5516 204.441 36.237 204.305 35.8899C204.169 35.5428 204.098 35.1699 204.096 34.7928V34.7677C204.097 34.389 204.167 34.0142 204.302 33.6649C204.436 33.3156 204.634 32.9988 204.882 32.7325C205.13 32.4663 205.424 32.2559 205.747 32.1135C206.071 31.9711 206.417 31.8995 206.765 31.9028C207.224 31.9025 207.675 32.0258 208.078 32.2616C208.481 32.4974 208.825 32.8383 209.077 33.2537V32.045H209.612V37.1475C209.627 37.5233 209.572 37.8985 209.45 38.2507C209.329 38.6028 209.143 38.9246 208.903 39.1968C208.63 39.4697 208.309 39.6812 207.96 39.819C207.611 39.9568 207.24 40.0183 206.869 39.9999C205.955 40.0011 205.065 39.678 204.335 39.0797ZM209.111 34.7845V34.7552C209.111 33.3583 207.956 32.4591 206.8 32.4591C206.518 32.4452 206.237 32.4944 205.973 32.6036C205.71 32.7128 205.47 32.8797 205.268 33.0939C205.067 33.308 204.908 33.5649 204.802 33.8485C204.695 34.1322 204.644 34.4365 204.65 34.7426V34.7677C204.648 35.0737 204.703 35.377 204.81 35.6597C204.918 35.9425 205.076 36.1991 205.277 36.4142C205.477 36.6294 205.715 36.7988 205.977 36.9125C206.238 37.0263 206.518 37.082 206.8 37.0764C207.967 37.0764 209.111 36.1521 209.111 34.7803V34.7845Z" fill="#123DC6"/>
<path d="M211.638 32.045H212.173V33.7598C212.367 33.2226 212.707 32.762 213.147 32.4386C213.587 32.1153 214.107 31.9445 214.639 31.9488V32.5887H214.573C213.286 32.5887 212.165 33.6427 212.165 35.6084V38.0843H211.63L211.638 32.045Z" fill="#123DC6"/>
<path d="M215.344 35.0898V35.0647C215.339 34.6522 215.409 34.2426 215.551 33.8598C215.693 33.477 215.903 33.1284 216.169 32.8344C216.436 32.5403 216.754 32.3066 217.104 32.1467C217.454 31.9868 217.83 31.9039 218.21 31.9028C218.588 31.9022 218.962 31.9833 219.31 32.1413C219.659 32.2993 219.975 32.531 220.24 32.8231C220.505 33.1151 220.713 33.4615 220.854 33.842C220.994 34.2226 221.063 34.6297 221.057 35.0396V35.0647C221.062 35.4772 220.992 35.8868 220.85 36.2696C220.709 36.6524 220.498 37.0009 220.232 37.295C219.965 37.5891 219.648 37.8228 219.297 37.9827C218.947 38.1426 218.571 38.2255 218.191 38.2266C217.813 38.2272 217.439 38.1461 217.091 37.9881C216.743 37.8301 216.427 37.5983 216.162 37.3063C215.897 37.0143 215.688 36.6679 215.547 36.2874C215.407 35.9068 215.338 35.4997 215.344 35.0898ZM220.479 35.0898V35.0647C220.49 34.7289 220.439 34.3942 220.329 34.08C220.22 33.7658 220.054 33.4785 219.841 33.2348C219.628 32.9911 219.372 32.7959 219.089 32.6605C218.806 32.5252 218.5 32.4524 218.191 32.4465C217.884 32.4525 217.582 32.5245 217.301 32.6586C217.021 32.7926 216.767 32.9859 216.556 33.2272C216.345 33.4685 216.18 33.753 216.071 34.0642C215.962 34.3754 215.912 34.7069 215.922 35.0396V35.0647C215.911 35.4005 215.962 35.7352 216.072 36.0494C216.181 36.3635 216.348 36.6509 216.561 36.8946C216.774 37.1383 217.029 37.3335 217.312 37.4689C217.596 37.6042 217.901 37.6769 218.21 37.6828C218.517 37.6775 218.82 37.6058 219.101 37.472C219.382 37.3383 219.636 37.145 219.847 36.9037C220.059 36.6623 220.224 36.3776 220.333 36.0661C220.442 35.7547 220.493 35.4228 220.483 35.0898H220.479Z" fill="#123DC6"/>
<path d="M221.951 32.045H222.552L224.232 37.3482L225.911 32.0199H226.335L228.015 37.3482L229.694 32.045H230.272L228.234 38.1303H227.776L226.131 32.9567L224.463 38.1303H224.004L221.951 32.045Z" fill="#123DC6"/>
<path d="M232.113 36.5326V32.5803H231.308V32.0449H232.113V30.1127H232.648V32.0407H234.605V32.5803H232.652V36.474C232.652 37.3398 233.122 37.6451 233.765 37.6451C234.049 37.6424 234.328 37.5694 234.582 37.4318V37.9755C234.299 38.121 233.99 38.1939 233.677 38.1888C232.81 38.1888 232.113 37.6827 232.113 36.5326Z" fill="#123DC6"/>
<path d="M236.182 29.4435H236.717V33.1741C236.909 32.7811 237.199 32.4549 237.554 32.2329C237.909 32.0109 238.315 31.9023 238.724 31.9194C240.13 31.9194 240.947 32.9608 240.947 34.4037V38.0968H240.411V34.4958C240.411 33.2411 239.768 32.438 238.647 32.438C238.389 32.4379 238.134 32.494 237.896 32.603C237.659 32.712 237.444 32.8717 237.264 33.0725C237.085 33.2734 236.944 33.5114 236.851 33.7724C236.757 34.0334 236.713 34.3121 236.721 34.592V38.0842H236.185L236.182 29.4435Z" fill="#123DC6"/>
</g>
<defs>
<linearGradient id="paint0_linear_2105_833" x1="18.1404" y1="20.3428" x2="40.6354" y2="8.3786" gradientUnits="userSpaceOnUse">
<stop offset="0.33" stop-color="#123DC6"/>
<stop offset="0.6" stop-color="#0A90BC"/>
<stop offset="0.87" stop-color="#03DFB3"/>
<stop offset="1" stop-color="#00FFAF"/>
</linearGradient>
<clipPath id="clip0_2105_833">
<rect width="241" height="40" fill="white"/>
</clipPath>
</defs>
</svg>
